<?xml version="1.0" encoding="utf-8" standalone="no"?>
<!DOCTYPE svg PUBLIC "-//W3C//DTD SVG 1.1//EN"
  "http://www.w3.org/Graphics/SVG/1.1/DTD/svg11.dtd">
<svg xmlns:xlink="http://www.w3.org/1999/xlink" width="504pt" height="288pt" viewBox="0 0 504 288" xmlns="http://www.w3.org/2000/svg" version="1.1">
 <metadata>
  <rdf:RDF xmlns:dc="http://purl.org/dc/elements/1.1/" xmlns:cc="http://creativecommons.org/ns#" xmlns:rdf="http://www.w3.org/1999/02/22-rdf-syntax-ns#">
   <cc:Work>
    <dc:type rdf:resource="http://purl.org/dc/dcmitype/StillImage"/>
    <dc:date>2026-01-17T11:44:10.844566</dc:date>
    <dc:format>image/svg+xml</dc:format>
    <dc:creator>
     <cc:Agent>
      <dc:title>Matplotlib v3.5.1, https://matplotlib.org/</dc:title>
     </cc:Agent>
    </dc:creator>
   </cc:Work>
  </rdf:RDF>
 </metadata>
 <defs>
  <style type="text/css">*{stroke-linejoin: round; stroke-linecap: butt}</style>
 </defs>
 <g id="figure_1">
  <g id="patch_1">
   <path d="M 0 288 
L 504 288 
L 504 0 
L 0 0 
z
" style="fill: #ffffff"/>
  </g>
  <g id="axes_1">
   <g id="patch_2">
    <path d="M 54.2 246.04 
L 438.6 246.04 
L 438.6 25.44 
L 54.2 25.44 
z
" style="fill: #ffffff"/>
   </g>
   <g id="matplotlib.axis_1">
    <g id="xtick_1">
     <g id="line2d_1">
      <path d="M 118.266667 246.04 
L 118.266667 25.44 
" clip-path="url(#pd4e6ddf0bf)" style="fill: none; stroke: #dddddd; stroke-width: 0.8; stroke-linecap: square"/>
     </g>
     <g id="line2d_2">
      <defs>
       <path id="m207907e3e5" d="M 0 0 
L 0 3.5 
" style="stroke: #000000; stroke-width: 0.8"/>
      </defs>
      <g>
       <use xlink:href="#m207907e3e5" x="118.266667" y="246.04" style="stroke: #000000; stroke-width: 0.8"/>
      </g>
     </g>
     <g id="text_1">
      <!-- 5 -->
      <g transform="translate(115.085417 260.638438)scale(0.1 -0.1)">
       <defs>
        <path id="DejaVuSans-35" d="M 691 4666 
L 3169 4666 
L 3169 4134 
L 1269 4134 
L 1269 2991 
Q 1406 3038 1543 3061 
Q 1681 3084 1819 3084 
Q 2600 3084 3056 2656 
Q 3513 2228 3513 1497 
Q 3513 744 3044 326 
Q 2575 -91 1722 -91 
Q 1428 -91 1123 -41 
Q 819 9 494 109 
L 494 744 
Q 775 591 1075 516 
Q 1375 441 1709 441 
Q 2250 441 2565 725 
Q 2881 1009 2881 1497 
Q 2881 1984 2565 2268 
Q 2250 2553 1709 2553 
Q 1456 2553 1204 2497 
Q 953 2441 691 2322 
L 691 4666 
z
" transform="scale(0.015625)"/>
       </defs>
       <use xlink:href="#DejaVuSans-35"/>
      </g>
     </g>
    </g>
    <g id="xtick_2">
     <g id="line2d_3">
      <path d="M 198.35 246.04 
L 198.35 25.44 
" clip-path="url(#pd4e6ddf0bf)" style="fill: none; stroke: #dddddd; stroke-width: 0.8; stroke-linecap: square"/>
     </g>
     <g id="line2d_4">
      <g>
       <use xlink:href="#m207907e3e5" x="198.35" y="246.04" style="stroke: #000000; stroke-width: 0.8"/>
      </g>
     </g>
     <g id="text_2">
      <!-- 10 -->
      <g transform="translate(191.9875 260.638438)scale(0.1 -0.1)">
       <defs>
        <path id="DejaVuSans-31" d="M 794 531 
L 1825 531 
L 1825 4091 
L 703 3866 
L 703 4441 
L 1819 4666 
L 2450 4666 
L 2450 531 
L 3481 531 
L 3481 0 
L 794 0 
L 794 531 
z
" transform="scale(0.015625)"/>
        <path id="DejaVuSans-30" d="M 2034 4250 
Q 1547 4250 1301 3770 
Q 1056 3291 1056 2328 
Q 1056 1369 1301 889 
Q 1547 409 2034 409 
Q 2525 409 2770 889 
Q 3016 1369 3016 2328 
Q 3016 3291 2770 3770 
Q 2525 4250 2034 4250 
z
M 2034 4750 
Q 2819 4750 3233 4129 
Q 3647 3509 3647 2328 
Q 3647 1150 3233 529 
Q 2819 -91 2034 -91 
Q 1250 -91 836 529 
Q 422 1150 422 2328 
Q 422 3509 836 4129 
Q 1250 4750 2034 4750 
z
" transform="scale(0.015625)"/>
       </defs>
       <use xlink:href="#DejaVuSans-31"/>
       <use xlink:href="#DejaVuSans-30" x="63.623047"/>
      </g>
     </g>
    </g>
    <g id="xtick_3">
     <g id="line2d_5">
      <path d="M 278.433333 246.04 
L 278.433333 25.44 
" clip-path="url(#pd4e6ddf0bf)" style="fill: none; stroke: #dddddd; stroke-width: 0.8; stroke-linecap: square"/>
     </g>
     <g id="line2d_6">
      <g>
       <use xlink:href="#m207907e3e5" x="278.433333" y="246.04" style="stroke: #000000; stroke-width: 0.8"/>
      </g>
     </g>
     <g id="text_3">
      <!-- 15 -->
      <g transform="translate(272.070833 260.638438)scale(0.1 -0.1)">
       <use xlink:href="#DejaVuSans-31"/>
       <use xlink:href="#DejaVuSans-35" x="63.623047"/>
      </g>
     </g>
    </g>
    <g id="xtick_4">
     <g id="line2d_7">
      <path d="M 358.516667 246.04 
L 358.516667 25.44 
" clip-path="url(#pd4e6ddf0bf)" style="fill: none; stroke: #dddddd; stroke-width: 0.8; stroke-linecap: square"/>
     </g>
     <g id="line2d_8">
      <g>
       <use xlink:href="#m207907e3e5" x="358.516667" y="246.04" style="stroke: #000000; stroke-width: 0.8"/>
      </g>
     </g>
     <g id="text_4">
      <!-- 20 -->
      <g transform="translate(352.154167 260.638438)scale(0.1 -0.1)">
       <defs>
        <path id="DejaVuSans-32" d="M 1228 531 
L 3431 531 
L 3431 0 
L 469 0 
L 469 531 
Q 828 903 1448 1529 
Q 2069 2156 2228 2338 
Q 2531 2678 2651 2914 
Q 2772 3150 2772 3378 
Q 2772 3750 2511 3984 
Q 2250 4219 1831 4219 
Q 1534 4219 1204 4116 
Q 875 4013 500 3803 
L 500 4441 
Q 881 4594 1212 4672 
Q 1544 4750 1819 4750 
Q 2544 4750 2975 4387 
Q 3406 4025 3406 3419 
Q 3406 3131 3298 2873 
Q 3191 2616 2906 2266 
Q 2828 2175 2409 1742 
Q 1991 1309 1228 531 
z
" transform="scale(0.015625)"/>
       </defs>
       <use xlink:href="#DejaVuSans-32"/>
       <use xlink:href="#DejaVuSans-30" x="63.623047"/>
      </g>
     </g>
    </g>
    <g id="xtick_5">
     <g id="line2d_9">
      <path d="M 438.6 246.04 
L 438.6 25.44 
" clip-path="url(#pd4e6ddf0bf)" style="fill: none; stroke: #dddddd; stroke-width: 0.8; stroke-linecap: square"/>
     </g>
     <g id="line2d_10">
      <g>
       <use xlink:href="#m207907e3e5" x="438.6" y="246.04" style="stroke: #000000; stroke-width: 0.8"/>
      </g>
     </g>
     <g id="text_5">
      <!-- 25 -->
      <g transform="translate(432.2375 260.638438)scale(0.1 -0.1)">
       <use xlink:href="#DejaVuSans-32"/>
       <use xlink:href="#DejaVuSans-35" x="63.623047"/>
      </g>
     </g>
    </g>
    <g id="text_6">
     <!-- Boat length L (m) -->
     <g transform="translate(202.623438 274.316562)scale(0.1 -0.1)">
      <defs>
       <path id="DejaVuSans-42" d="M 1259 2228 
L 1259 519 
L 2272 519 
Q 2781 519 3026 730 
Q 3272 941 3272 1375 
Q 3272 1813 3026 2020 
Q 2781 2228 2272 2228 
L 1259 2228 
z
M 1259 4147 
L 1259 2741 
L 2194 2741 
Q 2656 2741 2882 2914 
Q 3109 3088 3109 3444 
Q 3109 3797 2882 3972 
Q 2656 4147 2194 4147 
L 1259 4147 
z
M 628 4666 
L 2241 4666 
Q 2963 4666 3353 4366 
Q 3744 4066 3744 3513 
Q 3744 3084 3544 2831 
Q 3344 2578 2956 2516 
Q 3422 2416 3680 2098 
Q 3938 1781 3938 1306 
Q 3938 681 3513 340 
Q 3088 0 2303 0 
L 628 0 
L 628 4666 
z
" transform="scale(0.015625)"/>
       <path id="DejaVuSans-6f" d="M 1959 3097 
Q 1497 3097 1228 2736 
Q 959 2375 959 1747 
Q 959 1119 1226 758 
Q 1494 397 1959 397 
Q 2419 397 2687 759 
Q 2956 1122 2956 1747 
Q 2956 2369 2687 2733 
Q 2419 3097 1959 3097 
z
M 1959 3584 
Q 2709 3584 3137 3096 
Q 3566 2609 3566 1747 
Q 3566 888 3137 398 
Q 2709 -91 1959 -91 
Q 1206 -91 779 398 
Q 353 888 353 1747 
Q 353 2609 779 3096 
Q 1206 3584 1959 3584 
z
" transform="scale(0.015625)"/>
       <path id="DejaVuSans-61" d="M 2194 1759 
Q 1497 1759 1228 1600 
Q 959 1441 959 1056 
Q 959 750 1161 570 
Q 1363 391 1709 391 
Q 2188 391 2477 730 
Q 2766 1069 2766 1631 
L 2766 1759 
L 2194 1759 
z
M 3341 1997 
L 3341 0 
L 2766 0 
L 2766 531 
Q 2569 213 2275 61 
Q 1981 -91 1556 -91 
Q 1019 -91 701 211 
Q 384 513 384 1019 
Q 384 1609 779 1909 
Q 1175 2209 1959 2209 
L 2766 2209 
L 2766 2266 
Q 2766 2663 2505 2880 
Q 2244 3097 1772 3097 
Q 1472 3097 1187 3025 
Q 903 2953 641 2809 
L 641 3341 
Q 956 3463 1253 3523 
Q 1550 3584 1831 3584 
Q 2591 3584 2966 3190 
Q 3341 2797 3341 1997 
z
" transform="scale(0.015625)"/>
       <path id="DejaVuSans-74" d="M 1172 4494 
L 1172 3500 
L 2356 3500 
L 2356 3053 
L 1172 3053 
L 1172 1153 
Q 1172 725 1289 603 
Q 1406 481 1766 481 
L 2356 481 
L 2356 0 
L 1766 0 
Q 1100 0 847 248 
Q 594 497 594 1153 
L 594 3053 
L 172 3053 
L 172 3500 
L 594 3500 
L 594 4494 
L 1172 4494 
z
" transform="scale(0.015625)"/>
       <path id="DejaVuSans-20" transform="scale(0.015625)"/>
       <path id="DejaVuSans-6c" d="M 603 4863 
L 1178 4863 
L 1178 0 
L 603 0 
L 603 4863 
z
" transform="scale(0.015625)"/>
       <path id="DejaVuSans-65" d="M 3597 1894 
L 3597 1613 
L 953 1613 
Q 991 1019 1311 708 
Q 1631 397 2203 397 
Q 2534 397 2845 478 
Q 3156 559 3463 722 
L 3463 178 
Q 3153 47 2828 -22 
Q 2503 -91 2169 -91 
Q 1331 -91 842 396 
Q 353 884 353 1716 
Q 353 2575 817 3079 
Q 1281 3584 2069 3584 
Q 2775 3584 3186 3129 
Q 3597 2675 3597 1894 
z
M 3022 2063 
Q 3016 2534 2758 2815 
Q 2500 3097 2075 3097 
Q 1594 3097 1305 2825 
Q 1016 2553 972 2059 
L 3022 2063 
z
" transform="scale(0.015625)"/>
       <path id="DejaVuSans-6e" d="M 3513 2113 
L 3513 0 
L 2938 0 
L 2938 2094 
Q 2938 2591 2744 2837 
Q 2550 3084 2163 3084 
Q 1697 3084 1428 2787 
Q 1159 2491 1159 1978 
L 1159 0 
L 581 0 
L 581 3500 
L 1159 3500 
L 1159 2956 
Q 1366 3272 1645 3428 
Q 1925 3584 2291 3584 
Q 2894 3584 3203 3211 
Q 3513 2838 3513 2113 
z
" transform="scale(0.015625)"/>
       <path id="DejaVuSans-67" d="M 2906 1791 
Q 2906 2416 2648 2759 
Q 2391 3103 1925 3103 
Q 1463 3103 1205 2759 
Q 947 2416 947 1791 
Q 947 1169 1205 825 
Q 1463 481 1925 481 
Q 2391 481 2648 825 
Q 2906 1169 2906 1791 
z
M 3481 434 
Q 3481 -459 3084 -895 
Q 2688 -1331 1869 -1331 
Q 1566 -1331 1297 -1286 
Q 1028 -1241 775 -1147 
L 775 -588 
Q 1028 -725 1275 -790 
Q 1522 -856 1778 -856 
Q 2344 -856 2625 -561 
Q 2906 -266 2906 331 
L 2906 616 
Q 2728 306 2450 153 
Q 2172 0 1784 0 
Q 1141 0 747 490 
Q 353 981 353 1791 
Q 353 2603 747 3093 
Q 1141 3584 1784 3584 
Q 2172 3584 2450 3431 
Q 2728 3278 2906 2969 
L 2906 3500 
L 3481 3500 
L 3481 434 
z
" transform="scale(0.015625)"/>
       <path id="DejaVuSans-68" d="M 3513 2113 
L 3513 0 
L 2938 0 
L 2938 2094 
Q 2938 2591 2744 2837 
Q 2550 3084 2163 3084 
Q 1697 3084 1428 2787 
Q 1159 2491 1159 1978 
L 1159 0 
L 581 0 
L 581 4863 
L 1159 4863 
L 1159 2956 
Q 1366 3272 1645 3428 
Q 1925 3584 2291 3584 
Q 2894 3584 3203 3211 
Q 3513 2838 3513 2113 
z
" transform="scale(0.015625)"/>
       <path id="DejaVuSans-4c" d="M 628 4666 
L 1259 4666 
L 1259 531 
L 3531 531 
L 3531 0 
L 628 0 
L 628 4666 
z
" transform="scale(0.015625)"/>
       <path id="DejaVuSans-28" d="M 1984 4856 
Q 1566 4138 1362 3434 
Q 1159 2731 1159 2009 
Q 1159 1288 1364 580 
Q 1569 -128 1984 -844 
L 1484 -844 
Q 1016 -109 783 600 
Q 550 1309 550 2009 
Q 550 2706 781 3412 
Q 1013 4119 1484 4856 
L 1984 4856 
z
" transform="scale(0.015625)"/>
       <path id="DejaVuSans-6d" d="M 3328 2828 
Q 3544 3216 3844 3400 
Q 4144 3584 4550 3584 
Q 5097 3584 5394 3201 
Q 5691 2819 5691 2113 
L 5691 0 
L 5113 0 
L 5113 2094 
Q 5113 2597 4934 2840 
Q 4756 3084 4391 3084 
Q 3944 3084 3684 2787 
Q 3425 2491 3425 1978 
L 3425 0 
L 2847 0 
L 2847 2094 
Q 2847 2600 2669 2842 
Q 2491 3084 2119 3084 
Q 1678 3084 1418 2786 
Q 1159 2488 1159 1978 
L 1159 0 
L 581 0 
L 581 3500 
L 1159 3500 
L 1159 2956 
Q 1356 3278 1631 3431 
Q 1906 3584 2284 3584 
Q 2666 3584 2933 3390 
Q 3200 3197 3328 2828 
z
" transform="scale(0.015625)"/>
       <path id="DejaVuSans-29" d="M 513 4856 
L 1013 4856 
Q 1481 4119 1714 3412 
Q 1947 2706 1947 2009 
Q 1947 1309 1714 600 
Q 1481 -109 1013 -844 
L 513 -844 
Q 928 -128 1133 580 
Q 1338 1288 1338 2009 
Q 1338 2731 1133 3434 
Q 928 4138 513 4856 
z
" transform="scale(0.015625)"/>
      </defs>
      <use xlink:href="#DejaVuSans-42"/>
      <use xlink:href="#DejaVuSans-6f" x="68.603516"/>
      <use xlink:href="#DejaVuSans-61" x="129.785156"/>
      <use xlink:href="#DejaVuSans-74" x="191.064453"/>
      <use xlink:href="#DejaVuSans-20" x="230.273438"/>
      <use xlink:href="#DejaVuSans-6c" x="262.060547"/>
      <use xlink:href="#DejaVuSans-65" x="289.84375"/>
      <use xlink:href="#DejaVuSans-6e" x="351.367188"/>
      <use xlink:href="#DejaVuSans-67" x="414.746094"/>
      <use xlink:href="#DejaVuSans-74" x="478.222656"/>
      <use xlink:href="#DejaVuSans-68" x="517.431641"/>
      <use xlink:href="#DejaVuSans-20" x="580.810547"/>
      <use xlink:href="#DejaVuSans-4c" x="612.597656"/>
      <use xlink:href="#DejaVuSans-20" x="668.310547"/>
      <use xlink:href="#DejaVuSans-28" x="700.097656"/>
      <use xlink:href="#DejaVuSans-6d" x="739.111328"/>
      <use xlink:href="#DejaVuSans-29" x="836.523438"/>
     </g>
    </g>
   </g>
   <g id="matplotlib.axis_2">
    <g id="ytick_1">
     <g id="line2d_11">
      <path d="M 54.2 246.04 
L 438.6 246.04 
" clip-path="url(#pd4e6ddf0bf)" style="fill: none; stroke: #dddddd; stroke-width: 0.8; stroke-linecap: square"/>
     </g>
     <g id="line2d_12">
      <defs>
       <path id="m152a9f68b3" d="M 0 0 
L -3.5 0 
" style="stroke: #000000; stroke-width: 0.8"/>
      </defs>
      <g>
       <use xlink:href="#m152a9f68b3" x="54.2" y="246.04" style="stroke: #000000; stroke-width: 0.8"/>
      </g>
     </g>
     <g id="text_7">
      <!-- 0.00 -->
      <g transform="translate(24.934375 249.839219)scale(0.1 -0.1)">
       <defs>
        <path id="DejaVuSans-2e" d="M 684 794 
L 1344 794 
L 1344 0 
L 684 0 
L 684 794 
z
" transform="scale(0.015625)"/>
       </defs>
       <use xlink:href="#DejaVuSans-30"/>
       <use xlink:href="#DejaVuSans-2e" x="63.623047"/>
       <use xlink:href="#DejaVuSans-30" x="95.410156"/>
       <use xlink:href="#DejaVuSans-30" x="159.033203"/>
      </g>
     </g>
    </g>
    <g id="ytick_2">
     <g id="line2d_13">
      <path d="M 54.2 215.401111 
L 438.6 215.401111 
" clip-path="url(#pd4e6ddf0bf)" style="fill: none; stroke: #dddddd; stroke-width: 0.8; stroke-linecap: square"/>
     </g>
     <g id="line2d_14">
      <g>
       <use xlink:href="#m152a9f68b3" x="54.2" y="215.401111" style="stroke: #000000; stroke-width: 0.8"/>
      </g>
     </g>
     <g id="text_8">
      <!-- 0.05 -->
      <g transform="translate(24.934375 219.20033)scale(0.1 -0.1)">
       <use xlink:href="#DejaVuSans-30"/>
       <use xlink:href="#DejaVuSans-2e" x="63.623047"/>
       <use xlink:href="#DejaVuSans-30" x="95.410156"/>
       <use xlink:href="#DejaVuSans-35" x="159.033203"/>
      </g>
     </g>
    </g>
    <g id="ytick_3">
     <g id="line2d_15">
      <path d="M 54.2 184.762222 
L 438.6 184.762222 
" clip-path="url(#pd4e6ddf0bf)" style="fill: none; stroke: #dddddd; stroke-width: 0.8; stroke-linecap: square"/>
     </g>
     <g id="line2d_16">
      <g>
       <use xlink:href="#m152a9f68b3" x="54.2" y="184.762222" style="stroke: #000000; stroke-width: 0.8"/>
      </g>
     </g>
     <g id="text_9">
      <!-- 0.10 -->
      <g transform="translate(24.934375 188.561441)scale(0.1 -0.1)">
       <use xlink:href="#DejaVuSans-30"/>
       <use xlink:href="#DejaVuSans-2e" x="63.623047"/>
       <use xlink:href="#DejaVuSans-31" x="95.410156"/>
       <use xlink:href="#DejaVuSans-30" x="159.033203"/>
      </g>
     </g>
    </g>
    <g id="ytick_4">
     <g id="line2d_17">
      <path d="M 54.2 154.123333 
L 438.6 154.123333 
" clip-path="url(#pd4e6ddf0bf)" style="fill: none; stroke: #dddddd; stroke-width: 0.8; stroke-linecap: square"/>
     </g>
     <g id="line2d_18">
      <g>
       <use xlink:href="#m152a9f68b3" x="54.2" y="154.123333" style="stroke: #000000; stroke-width: 0.8"/>
      </g>
     </g>
     <g id="text_10">
      <!-- 0.15 -->
      <g transform="translate(24.934375 157.922552)scale(0.1 -0.1)">
       <use xlink:href="#DejaVuSans-30"/>
       <use xlink:href="#DejaVuSans-2e" x="63.623047"/>
       <use xlink:href="#DejaVuSans-31" x="95.410156"/>
       <use xlink:href="#DejaVuSans-35" x="159.033203"/>
      </g>
     </g>
    </g>
    <g id="ytick_5">
     <g id="line2d_19">
      <path d="M 54.2 123.484444 
L 438.6 123.484444 
" clip-path="url(#pd4e6ddf0bf)" style="fill: none; stroke: #dddddd; stroke-width: 0.8; stroke-linecap: square"/>
     </g>
     <g id="line2d_20">
      <g>
       <use xlink:href="#m152a9f68b3" x="54.2" y="123.484444" style="stroke: #000000; stroke-width: 0.8"/>
      </g>
     </g>
     <g id="text_11">
      <!-- 0.20 -->
      <g transform="translate(24.934375 127.283663)scale(0.1 -0.1)">
       <use xlink:href="#DejaVuSans-30"/>
       <use xlink:href="#DejaVuSans-2e" x="63.623047"/>
       <use xlink:href="#DejaVuSans-32" x="95.410156"/>
       <use xlink:href="#DejaVuSans-30" x="159.033203"/>
      </g>
     </g>
    </g>
    <g id="ytick_6">
     <g id="line2d_21">
      <path d="M 54.2 92.845556 
L 438.6 92.845556 
" clip-path="url(#pd4e6ddf0bf)" style="fill: none; stroke: #dddddd; stroke-width: 0.8; stroke-linecap: square"/>
     </g>
     <g id="line2d_22">
      <g>
       <use xlink:href="#m152a9f68b3" x="54.2" y="92.845556" style="stroke: #000000; stroke-width: 0.8"/>
      </g>
     </g>
     <g id="text_12">
      <!-- 0.25 -->
      <g transform="translate(24.934375 96.644774)scale(0.1 -0.1)">
       <use xlink:href="#DejaVuSans-30"/>
       <use xlink:href="#DejaVuSans-2e" x="63.623047"/>
       <use xlink:href="#DejaVuSans-32" x="95.410156"/>
       <use xlink:href="#DejaVuSans-35" x="159.033203"/>
      </g>
     </g>
    </g>
    <g id="ytick_7">
     <g id="line2d_23">
      <path d="M 54.2 62.206667 
L 438.6 62.206667 
" clip-path="url(#pd4e6ddf0bf)" style="fill: none; stroke: #dddddd; stroke-width: 0.8; stroke-linecap: square"/>
     </g>
     <g id="line2d_24">
      <g>
       <use xlink:href="#m152a9f68b3" x="54.2" y="62.206667" style="stroke: #000000; stroke-width: 0.8"/>
      </g>
     </g>
     <g id="text_13">
      <!-- 0.30 -->
      <g transform="translate(24.934375 66.005885)scale(0.1 -0.1)">
       <defs>
        <path id="DejaVuSans-33" d="M 2597 2516 
Q 3050 2419 3304 2112 
Q 3559 1806 3559 1356 
Q 3559 666 3084 287 
Q 2609 -91 1734 -91 
Q 1441 -91 1130 -33 
Q 819 25 488 141 
L 488 750 
Q 750 597 1062 519 
Q 1375 441 1716 441 
Q 2309 441 2620 675 
Q 2931 909 2931 1356 
Q 2931 1769 2642 2001 
Q 2353 2234 1838 2234 
L 1294 2234 
L 1294 2753 
L 1863 2753 
Q 2328 2753 2575 2939 
Q 2822 3125 2822 3475 
Q 2822 3834 2567 4026 
Q 2313 4219 1838 4219 
Q 1578 4219 1281 4162 
Q 984 4106 628 3988 
L 628 4550 
Q 988 4650 1302 4700 
Q 1616 4750 1894 4750 
Q 2613 4750 3031 4423 
Q 3450 4097 3450 3541 
Q 3450 3153 3228 2886 
Q 3006 2619 2597 2516 
z
" transform="scale(0.015625)"/>
       </defs>
       <use xlink:href="#DejaVuSans-30"/>
       <use xlink:href="#DejaVuSans-2e" x="63.623047"/>
       <use xlink:href="#DejaVuSans-33" x="95.410156"/>
       <use xlink:href="#DejaVuSans-30" x="159.033203"/>
      </g>
     </g>
    </g>
    <g id="ytick_8">
     <g id="line2d_25">
      <path d="M 54.2 31.567778 
L 438.6 31.567778 
" clip-path="url(#pd4e6ddf0bf)" style="fill: none; stroke: #dddddd; stroke-width: 0.8; stroke-linecap: square"/>
     </g>
     <g id="line2d_26">
      <g>
       <use xlink:href="#m152a9f68b3" x="54.2" y="31.567778" style="stroke: #000000; stroke-width: 0.8"/>
      </g>
     </g>
     <g id="text_14">
      <!-- 0.35 -->
      <g transform="translate(24.934375 35.366997)scale(0.1 -0.1)">
       <use xlink:href="#DejaVuSans-30"/>
       <use xlink:href="#DejaVuSans-2e" x="63.623047"/>
       <use xlink:href="#DejaVuSans-33" x="95.410156"/>
       <use xlink:href="#DejaVuSans-35" x="159.033203"/>
      </g>
     </g>
    </g>
    <g id="text_15">
     <!-- Low-pass alpha -->
     <g transform="translate(18.854688 174.287656)rotate(-90)scale(0.1 -0.1)">
      <defs>
       <path id="DejaVuSans-77" d="M 269 3500 
L 844 3500 
L 1563 769 
L 2278 3500 
L 2956 3500 
L 3675 769 
L 4391 3500 
L 4966 3500 
L 4050 0 
L 3372 0 
L 2619 2869 
L 1863 0 
L 1184 0 
L 269 3500 
z
" transform="scale(0.015625)"/>
       <path id="DejaVuSans-2d" d="M 313 2009 
L 1997 2009 
L 1997 1497 
L 313 1497 
L 313 2009 
z
" transform="scale(0.015625)"/>
       <path id="DejaVuSans-70" d="M 1159 525 
L 1159 -1331 
L 581 -1331 
L 581 3500 
L 1159 3500 
L 1159 2969 
Q 1341 3281 1617 3432 
Q 1894 3584 2278 3584 
Q 2916 3584 3314 3078 
Q 3713 2572 3713 1747 
Q 3713 922 3314 415 
Q 2916 -91 2278 -91 
Q 1894 -91 1617 61 
Q 1341 213 1159 525 
z
M 3116 1747 
Q 3116 2381 2855 2742 
Q 2594 3103 2138 3103 
Q 1681 3103 1420 2742 
Q 1159 2381 1159 1747 
Q 1159 1113 1420 752 
Q 1681 391 2138 391 
Q 2594 391 2855 752 
Q 3116 1113 3116 1747 
z
" transform="scale(0.015625)"/>
       <path id="DejaVuSans-73" d="M 2834 3397 
L 2834 2853 
Q 2591 2978 2328 3040 
Q 2066 3103 1784 3103 
Q 1356 3103 1142 2972 
Q 928 2841 928 2578 
Q 928 2378 1081 2264 
Q 1234 2150 1697 2047 
L 1894 2003 
Q 2506 1872 2764 1633 
Q 3022 1394 3022 966 
Q 3022 478 2636 193 
Q 2250 -91 1575 -91 
Q 1294 -91 989 -36 
Q 684 19 347 128 
L 347 722 
Q 666 556 975 473 
Q 1284 391 1588 391 
Q 1994 391 2212 530 
Q 2431 669 2431 922 
Q 2431 1156 2273 1281 
Q 2116 1406 1581 1522 
L 1381 1569 
Q 847 1681 609 1914 
Q 372 2147 372 2553 
Q 372 3047 722 3315 
Q 1072 3584 1716 3584 
Q 2034 3584 2315 3537 
Q 2597 3491 2834 3397 
z
" transform="scale(0.015625)"/>
      </defs>
      <use xlink:href="#DejaVuSans-4c"/>
      <use xlink:href="#DejaVuSans-6f" x="53.962891"/>
      <use xlink:href="#DejaVuSans-77" x="115.144531"/>
      <use xlink:href="#DejaVuSans-2d" x="196.931641"/>
      <use xlink:href="#DejaVuSans-70" x="233.015625"/>
      <use xlink:href="#DejaVuSans-61" x="296.492188"/>
      <use xlink:href="#DejaVuSans-73" x="357.771484"/>
      <use xlink:href="#DejaVuSans-73" x="409.871094"/>
      <use xlink:href="#DejaVuSans-20" x="461.970703"/>
      <use xlink:href="#DejaVuSans-61" x="493.757812"/>
      <use xlink:href="#DejaVuSans-6c" x="555.037109"/>
      <use xlink:href="#DejaVuSans-70" x="582.820312"/>
      <use xlink:href="#DejaVuSans-68" x="646.296875"/>
      <use xlink:href="#DejaVuSans-61" x="709.675781"/>
     </g>
    </g>
   </g>
   <g id="line2d_27">
    <path d="M 54.2 172.506667 
L 85.992481 172.506667 
L 86.95589 173.05339 
L 90.809524 175.776467 
L 94.663158 178.215862 
L 98.516792 180.417641 
L 103.333835 182.890187 
L 108.150877 185.10278 
L 113.931328 187.474025 
L 119.711779 189.588386 
L 126.455639 191.78763 
L 133.199499 193.748368 
L 140.906767 195.748315 
L 149.577444 197.74526 
L 159.211529 199.707293 
L 169.809023 201.611605 
L 181.369925 203.442925 
L 193.894236 205.19194 
L 207.381955 206.853855 
L 222.796491 208.52546 
L 240.137845 210.172247 
L 259.406015 211.769841 
L 280.601003 213.302251 
L 304.686216 214.816614 
L 331.661654 216.286166 
L 362.490727 217.735693 
L 397.173434 219.137681 
L 436.673183 220.505796 
L 438.6 220.567306 
L 438.6 220.567306 
" clip-path="url(#pd4e6ddf0bf)" style="fill: none; stroke: #000000; stroke-width: 2; stroke-linecap: square"/>
   </g>
   <g id="line2d_28">
    <path d="M 86.233333 246.04 
L 86.233333 25.44 
" clip-path="url(#pd4e6ddf0bf)" style="fill: none; stroke-dasharray: 3.7,1.6; stroke-dashoffset: 0; stroke: #000000"/>
   </g>
   <g id="line2d_29">
    <path d="M 54.2 221.528889 
L 438.6 221.528889 
" clip-path="url(#pd4e6ddf0bf)" style="fill: none; stroke-dasharray: 1,1.65; stroke-dashoffset: 0; stroke: #000000"/>
   </g>
   <g id="line2d_30">
    <path d="M 54.2 62.206667 
L 438.6 62.206667 
" clip-path="url(#pd4e6ddf0bf)" style="fill: none; stroke-dasharray: 1,1.65; stroke-dashoffset: 0; stroke: #000000"/>
   </g>
   <g id="patch_3">
    <path d="M 54.2 246.04 
L 54.2 25.44 
" style="fill: none; stroke: #000000; stroke-width: 0.8; stroke-linejoin: miter; stroke-linecap: square"/>
   </g>
   <g id="patch_4">
    <path d="M 438.6 246.04 
L 438.6 25.44 
" style="fill: none; stroke: #000000; stroke-width: 0.8; stroke-linejoin: miter; stroke-linecap: square"/>
   </g>
   <g id="patch_5">
    <path d="M 54.2 246.04 
L 438.6 246.04 
" style="fill: none; stroke: #000000; stroke-width: 0.8; stroke-linejoin: miter; stroke-linecap: square"/>
   </g>
   <g id="patch_6">
    <path d="M 54.2 25.44 
L 438.6 25.44 
" style="fill: none; stroke: #000000; stroke-width: 0.8; stroke-linejoin: miter; stroke-linecap: square"/>
   </g>
   <g id="patch_7">
    <path d="M 204.593985 51.754575 
Q 146.102663 113.244626 88.381912 173.924602 
" style="fill: none; stroke: #000000; stroke-linecap: round"/>
    <path d="M 92.167295 172.556803 
L 88.381912 173.924602 
L 89.558903 170.075616 
" style="fill: none; stroke: #000000; stroke-linecap: round"/>
   </g>
   <g id="text_16">
    <!-- KALMAN_TUNING.imu.gravityLowPass.baseBoatLengthMeters (L0) -->
    <g transform="translate(63.81 46.181615)scale(0.09 -0.09)">
     <defs>
      <path id="DejaVuSans-4b" d="M 628 4666 
L 1259 4666 
L 1259 2694 
L 3353 4666 
L 4166 4666 
L 1850 2491 
L 4331 0 
L 3500 0 
L 1259 2247 
L 1259 0 
L 628 0 
L 628 4666 
z
" transform="scale(0.015625)"/>
      <path id="DejaVuSans-41" d="M 2188 4044 
L 1331 1722 
L 3047 1722 
L 2188 4044 
z
M 1831 4666 
L 2547 4666 
L 4325 0 
L 3669 0 
L 3244 1197 
L 1141 1197 
L 716 0 
L 50 0 
L 1831 4666 
z
" transform="scale(0.015625)"/>
      <path id="DejaVuSans-4d" d="M 628 4666 
L 1569 4666 
L 2759 1491 
L 3956 4666 
L 4897 4666 
L 4897 0 
L 4281 0 
L 4281 4097 
L 3078 897 
L 2444 897 
L 1241 4097 
L 1241 0 
L 628 0 
L 628 4666 
z
" transform="scale(0.015625)"/>
      <path id="DejaVuSans-4e" d="M 628 4666 
L 1478 4666 
L 3547 763 
L 3547 4666 
L 4159 4666 
L 4159 0 
L 3309 0 
L 1241 3903 
L 1241 0 
L 628 0 
L 628 4666 
z
" transform="scale(0.015625)"/>
      <path id="DejaVuSans-5f" d="M 3263 -1063 
L 3263 -1509 
L -63 -1509 
L -63 -1063 
L 3263 -1063 
z
" transform="scale(0.015625)"/>
      <path id="DejaVuSans-54" d="M -19 4666 
L 3928 4666 
L 3928 4134 
L 2272 4134 
L 2272 0 
L 1638 0 
L 1638 4134 
L -19 4134 
L -19 4666 
z
" transform="scale(0.015625)"/>
      <path id="DejaVuSans-55" d="M 556 4666 
L 1191 4666 
L 1191 1831 
Q 1191 1081 1462 751 
Q 1734 422 2344 422 
Q 2950 422 3222 751 
Q 3494 1081 3494 1831 
L 3494 4666 
L 4128 4666 
L 4128 1753 
Q 4128 841 3676 375 
Q 3225 -91 2344 -91 
Q 1459 -91 1007 375 
Q 556 841 556 1753 
L 556 4666 
z
" transform="scale(0.015625)"/>
      <path id="DejaVuSans-49" d="M 628 4666 
L 1259 4666 
L 1259 0 
L 628 0 
L 628 4666 
z
" transform="scale(0.015625)"/>
      <path id="DejaVuSans-47" d="M 3809 666 
L 3809 1919 
L 2778 1919 
L 2778 2438 
L 4434 2438 
L 4434 434 
Q 4069 175 3628 42 
Q 3188 -91 2688 -91 
Q 1594 -91 976 548 
Q 359 1188 359 2328 
Q 359 3472 976 4111 
Q 1594 4750 2688 4750 
Q 3144 4750 3555 4637 
Q 3966 4525 4313 4306 
L 4313 3634 
Q 3963 3931 3569 4081 
Q 3175 4231 2741 4231 
Q 1884 4231 1454 3753 
Q 1025 3275 1025 2328 
Q 1025 1384 1454 906 
Q 1884 428 2741 428 
Q 3075 428 3337 486 
Q 3600 544 3809 666 
z
" transform="scale(0.015625)"/>
      <path id="DejaVuSans-69" d="M 603 3500 
L 1178 3500 
L 1178 0 
L 603 0 
L 603 3500 
z
M 603 4863 
L 1178 4863 
L 1178 4134 
L 603 4134 
L 603 4863 
z
" transform="scale(0.015625)"/>
      <path id="DejaVuSans-75" d="M 544 1381 
L 544 3500 
L 1119 3500 
L 1119 1403 
Q 1119 906 1312 657 
Q 1506 409 1894 409 
Q 2359 409 2629 706 
Q 2900 1003 2900 1516 
L 2900 3500 
L 3475 3500 
L 3475 0 
L 2900 0 
L 2900 538 
Q 2691 219 2414 64 
Q 2138 -91 1772 -91 
Q 1169 -91 856 284 
Q 544 659 544 1381 
z
M 1991 3584 
L 1991 3584 
z
" transform="scale(0.015625)"/>
      <path id="DejaVuSans-72" d="M 2631 2963 
Q 2534 3019 2420 3045 
Q 2306 3072 2169 3072 
Q 1681 3072 1420 2755 
Q 1159 2438 1159 1844 
L 1159 0 
L 581 0 
L 581 3500 
L 1159 3500 
L 1159 2956 
Q 1341 3275 1631 3429 
Q 1922 3584 2338 3584 
Q 2397 3584 2469 3576 
Q 2541 3569 2628 3553 
L 2631 2963 
z
" transform="scale(0.015625)"/>
      <path id="DejaVuSans-76" d="M 191 3500 
L 800 3500 
L 1894 563 
L 2988 3500 
L 3597 3500 
L 2284 0 
L 1503 0 
L 191 3500 
z
" transform="scale(0.015625)"/>
      <path id="DejaVuSans-79" d="M 2059 -325 
Q 1816 -950 1584 -1140 
Q 1353 -1331 966 -1331 
L 506 -1331 
L 506 -850 
L 844 -850 
Q 1081 -850 1212 -737 
Q 1344 -625 1503 -206 
L 1606 56 
L 191 3500 
L 800 3500 
L 1894 763 
L 2988 3500 
L 3597 3500 
L 2059 -325 
z
" transform="scale(0.015625)"/>
      <path id="DejaVuSans-50" d="M 1259 4147 
L 1259 2394 
L 2053 2394 
Q 2494 2394 2734 2622 
Q 2975 2850 2975 3272 
Q 2975 3691 2734 3919 
Q 2494 4147 2053 4147 
L 1259 4147 
z
M 628 4666 
L 2053 4666 
Q 2838 4666 3239 4311 
Q 3641 3956 3641 3272 
Q 3641 2581 3239 2228 
Q 2838 1875 2053 1875 
L 1259 1875 
L 1259 0 
L 628 0 
L 628 4666 
z
" transform="scale(0.015625)"/>
      <path id="DejaVuSans-62" d="M 3116 1747 
Q 3116 2381 2855 2742 
Q 2594 3103 2138 3103 
Q 1681 3103 1420 2742 
Q 1159 2381 1159 1747 
Q 1159 1113 1420 752 
Q 1681 391 2138 391 
Q 2594 391 2855 752 
Q 3116 1113 3116 1747 
z
M 1159 2969 
Q 1341 3281 1617 3432 
Q 1894 3584 2278 3584 
Q 2916 3584 3314 3078 
Q 3713 2572 3713 1747 
Q 3713 922 3314 415 
Q 2916 -91 2278 -91 
Q 1894 -91 1617 61 
Q 1341 213 1159 525 
L 1159 0 
L 581 0 
L 581 4863 
L 1159 4863 
L 1159 2969 
z
" transform="scale(0.015625)"/>
     </defs>
     <use xlink:href="#DejaVuSans-4b"/>
     <use xlink:href="#DejaVuSans-41" x="63.826172"/>
     <use xlink:href="#DejaVuSans-4c" x="132.234375"/>
     <use xlink:href="#DejaVuSans-4d" x="187.947266"/>
     <use xlink:href="#DejaVuSans-41" x="274.226562"/>
     <use xlink:href="#DejaVuSans-4e" x="342.634766"/>
     <use xlink:href="#DejaVuSans-5f" x="417.439453"/>
     <use xlink:href="#DejaVuSans-54" x="467.439453"/>
     <use xlink:href="#DejaVuSans-55" x="528.523438"/>
     <use xlink:href="#DejaVuSans-4e" x="601.716797"/>
     <use xlink:href="#DejaVuSans-49" x="676.521484"/>
     <use xlink:href="#DejaVuSans-4e" x="706.013672"/>
     <use xlink:href="#DejaVuSans-47" x="780.818359"/>
     <use xlink:href="#DejaVuSans-2e" x="858.308594"/>
     <use xlink:href="#DejaVuSans-69" x="890.095703"/>
     <use xlink:href="#DejaVuSans-6d" x="917.878906"/>
     <use xlink:href="#DejaVuSans-75" x="1015.291016"/>
     <use xlink:href="#DejaVuSans-2e" x="1078.669922"/>
     <use xlink:href="#DejaVuSans-67" x="1110.457031"/>
     <use xlink:href="#DejaVuSans-72" x="1173.933594"/>
     <use xlink:href="#DejaVuSans-61" x="1215.046875"/>
     <use xlink:href="#DejaVuSans-76" x="1276.326172"/>
     <use xlink:href="#DejaVuSans-69" x="1335.505859"/>
     <use xlink:href="#DejaVuSans-74" x="1363.289062"/>
     <use xlink:href="#DejaVuSans-79" x="1402.498047"/>
     <use xlink:href="#DejaVuSans-4c" x="1461.677734"/>
     <use xlink:href="#DejaVuSans-6f" x="1515.640625"/>
     <use xlink:href="#DejaVuSans-77" x="1576.822266"/>
     <use xlink:href="#DejaVuSans-50" x="1658.609375"/>
     <use xlink:href="#DejaVuSans-61" x="1714.412109"/>
     <use xlink:href="#DejaVuSans-73" x="1775.691406"/>
     <use xlink:href="#DejaVuSans-73" x="1827.791016"/>
     <use xlink:href="#DejaVuSans-2e" x="1879.890625"/>
     <use xlink:href="#DejaVuSans-62" x="1911.677734"/>
     <use xlink:href="#DejaVuSans-61" x="1975.154297"/>
     <use xlink:href="#DejaVuSans-73" x="2036.433594"/>
     <use xlink:href="#DejaVuSans-65" x="2088.533203"/>
     <use xlink:href="#DejaVuSans-42" x="2150.056641"/>
     <use xlink:href="#DejaVuSans-6f" x="2218.660156"/>
     <use xlink:href="#DejaVuSans-61" x="2279.841797"/>
     <use xlink:href="#DejaVuSans-74" x="2341.121094"/>
     <use xlink:href="#DejaVuSans-4c" x="2380.330078"/>
     <use xlink:href="#DejaVuSans-65" x="2434.292969"/>
     <use xlink:href="#DejaVuSans-6e" x="2495.816406"/>
     <use xlink:href="#DejaVuSans-67" x="2559.195312"/>
     <use xlink:href="#DejaVuSans-74" x="2622.671875"/>
     <use xlink:href="#DejaVuSans-68" x="2661.880859"/>
     <use xlink:href="#DejaVuSans-4d" x="2725.259766"/>
     <use xlink:href="#DejaVuSans-65" x="2811.539062"/>
     <use xlink:href="#DejaVuSans-74" x="2873.0625"/>
     <use xlink:href="#DejaVuSans-65" x="2912.271484"/>
     <use xlink:href="#DejaVuSans-72" x="2973.794922"/>
     <use xlink:href="#DejaVuSans-73" x="3014.908203"/>
     <use xlink:href="#DejaVuSans-20" x="3067.007812"/>
     <use xlink:href="#DejaVuSans-28" x="3098.794922"/>
     <use xlink:href="#DejaVuSans-4c" x="3137.808594"/>
     <use xlink:href="#DejaVuSans-30" x="3193.521484"/>
     <use xlink:href="#DejaVuSans-29" x="3257.144531"/>
    </g>
   </g>
   <g id="patch_8">
    <path d="M 226.381683 176.068672 
Q 164.514567 174.315987 103.765036 172.594962 
" style="fill: none; stroke: #000000; stroke-linecap: round"/>
    <path d="M 107.312619 174.496187 
L 103.765036 172.594962 
L 107.414566 170.897631 
" style="fill: none; stroke: #000000; stroke-linecap: round"/>
   </g>
   <g id="text_17">
    <!-- KALMAN_TUNING.imu.gravityLowPass.baseAlpha (alpha0) -->
    <g transform="translate(230.383333 182.218281)scale(0.09 -0.09)">
     <use xlink:href="#DejaVuSans-4b"/>
     <use xlink:href="#DejaVuSans-41" x="63.826172"/>
     <use xlink:href="#DejaVuSans-4c" x="132.234375"/>
     <use xlink:href="#DejaVuSans-4d" x="187.947266"/>
     <use xlink:href="#DejaVuSans-41" x="274.226562"/>
     <use xlink:href="#DejaVuSans-4e" x="342.634766"/>
     <use xlink:href="#DejaVuSans-5f" x="417.439453"/>
     <use xlink:href="#DejaVuSans-54" x="467.439453"/>
     <use xlink:href="#DejaVuSans-55" x="528.523438"/>
     <use xlink:href="#DejaVuSans-4e" x="601.716797"/>
     <use xlink:href="#DejaVuSans-49" x="676.521484"/>
     <use xlink:href="#DejaVuSans-4e" x="706.013672"/>
     <use xlink:href="#DejaVuSans-47" x="780.818359"/>
     <use xlink:href="#DejaVuSans-2e" x="858.308594"/>
     <use xlink:href="#DejaVuSans-69" x="890.095703"/>
     <use xlink:href="#DejaVuSans-6d" x="917.878906"/>
     <use xlink:href="#DejaVuSans-75" x="1015.291016"/>
     <use xlink:href="#DejaVuSans-2e" x="1078.669922"/>
     <use xlink:href="#DejaVuSans-67" x="1110.457031"/>
     <use xlink:href="#DejaVuSans-72" x="1173.933594"/>
     <use xlink:href="#DejaVuSans-61" x="1215.046875"/>
     <use xlink:href="#DejaVuSans-76" x="1276.326172"/>
     <use xlink:href="#DejaVuSans-69" x="1335.505859"/>
     <use xlink:href="#DejaVuSans-74" x="1363.289062"/>
     <use xlink:href="#DejaVuSans-79" x="1402.498047"/>
     <use xlink:href="#DejaVuSans-4c" x="1461.677734"/>
     <use xlink:href="#DejaVuSans-6f" x="1515.640625"/>
     <use xlink:href="#DejaVuSans-77" x="1576.822266"/>
     <use xlink:href="#DejaVuSans-50" x="1658.609375"/>
     <use xlink:href="#DejaVuSans-61" x="1714.412109"/>
     <use xlink:href="#DejaVuSans-73" x="1775.691406"/>
     <use xlink:href="#DejaVuSans-73" x="1827.791016"/>
     <use xlink:href="#DejaVuSans-2e" x="1879.890625"/>
     <use xlink:href="#DejaVuSans-62" x="1911.677734"/>
     <use xlink:href="#DejaVuSans-61" x="1975.154297"/>
     <use xlink:href="#DejaVuSans-73" x="2036.433594"/>
     <use xlink:href="#DejaVuSans-65" x="2088.533203"/>
     <use xlink:href="#DejaVuSans-41" x="2150.056641"/>
     <use xlink:href="#DejaVuSans-6c" x="2218.464844"/>
     <use xlink:href="#DejaVuSans-70" x="2246.248047"/>
     <use xlink:href="#DejaVuSans-68" x="2309.724609"/>
     <use xlink:href="#DejaVuSans-61" x="2373.103516"/>
     <use xlink:href="#DejaVuSans-20" x="2434.382812"/>
     <use xlink:href="#DejaVuSans-28" x="2466.169922"/>
     <use xlink:href="#DejaVuSans-61" x="2505.183594"/>
     <use xlink:href="#DejaVuSans-6c" x="2566.462891"/>
     <use xlink:href="#DejaVuSans-70" x="2594.246094"/>
     <use xlink:href="#DejaVuSans-68" x="2657.722656"/>
     <use xlink:href="#DejaVuSans-61" x="2721.101562"/>
     <use xlink:href="#DejaVuSans-30" x="2782.380859"/>
     <use xlink:href="#DejaVuSans-29" x="2846.003906"/>
    </g>
   </g>
   <g id="patch_9">
    <path d="M 337.144805 218.48671 
Q 346.84067 219.866869 355.429658 221.089469 
" style="fill: none; stroke: #000000; stroke-linecap: round"/>
    <path d="M 352.119249 218.800104 
L 355.429658 221.089469 
L 351.611921 222.364177 
" style="fill: none; stroke: #000000; stroke-linecap: round"/>
   </g>
   <g id="text_18">
    <!-- KALMAN_TUNING.imu.gravityLowPass.minAlpha -->
    <g transform="translate(182.333333 214.082726)scale(0.09 -0.09)">
     <use xlink:href="#DejaVuSans-4b"/>
     <use xlink:href="#DejaVuSans-41" x="63.826172"/>
     <use xlink:href="#DejaVuSans-4c" x="132.234375"/>
     <use xlink:href="#DejaVuSans-4d" x="187.947266"/>
     <use xlink:href="#DejaVuSans-41" x="274.226562"/>
     <use xlink:href="#DejaVuSans-4e" x="342.634766"/>
     <use xlink:href="#DejaVuSans-5f" x="417.439453"/>
     <use xlink:href="#DejaVuSans-54" x="467.439453"/>
     <use xlink:href="#DejaVuSans-55" x="528.523438"/>
     <use xlink:href="#DejaVuSans-4e" x="601.716797"/>
     <use xlink:href="#DejaVuSans-49" x="676.521484"/>
     <use xlink:href="#DejaVuSans-4e" x="706.013672"/>
     <use xlink:href="#DejaVuSans-47" x="780.818359"/>
     <use xlink:href="#DejaVuSans-2e" x="858.308594"/>
     <use xlink:href="#DejaVuSans-69" x="890.095703"/>
     <use xlink:href="#DejaVuSans-6d" x="917.878906"/>
     <use xlink:href="#DejaVuSans-75" x="1015.291016"/>
     <use xlink:href="#DejaVuSans-2e" x="1078.669922"/>
     <use xlink:href="#DejaVuSans-67" x="1110.457031"/>
     <use xlink:href="#DejaVuSans-72" x="1173.933594"/>
     <use xlink:href="#DejaVuSans-61" x="1215.046875"/>
     <use xlink:href="#DejaVuSans-76" x="1276.326172"/>
     <use xlink:href="#DejaVuSans-69" x="1335.505859"/>
     <use xlink:href="#DejaVuSans-74" x="1363.289062"/>
     <use xlink:href="#DejaVuSans-79" x="1402.498047"/>
     <use xlink:href="#DejaVuSans-4c" x="1461.677734"/>
     <use xlink:href="#DejaVuSans-6f" x="1515.640625"/>
     <use xlink:href="#DejaVuSans-77" x="1576.822266"/>
     <use xlink:href="#DejaVuSans-50" x="1658.609375"/>
     <use xlink:href="#DejaVuSans-61" x="1714.412109"/>
     <use xlink:href="#DejaVuSans-73" x="1775.691406"/>
     <use xlink:href="#DejaVuSans-73" x="1827.791016"/>
     <use xlink:href="#DejaVuSans-2e" x="1879.890625"/>
     <use xlink:href="#DejaVuSans-6d" x="1911.677734"/>
     <use xlink:href="#DejaVuSans-69" x="2009.089844"/>
     <use xlink:href="#DejaVuSans-6e" x="2036.873047"/>
     <use xlink:href="#DejaVuSans-41" x="2100.251953"/>
     <use xlink:href="#DejaVuSans-6c" x="2168.660156"/>
     <use xlink:href="#DejaVuSans-70" x="2196.443359"/>
     <use xlink:href="#DejaVuSans-68" x="2259.919922"/>
     <use xlink:href="#DejaVuSans-61" x="2323.298828"/>
    </g>
   </g>
   <g id="patch_10">
    <path d="M 274.426845 56.866562 
Q 197.345155 59.502473 121.380847 62.100173 
" style="fill: none; stroke: #000000; stroke-linecap: round"/>
    <path d="M 125.040261 63.776087 
L 121.380847 62.100173 
L 124.917226 60.17819 
" style="fill: none; stroke: #000000; stroke-linecap: round"/>
   </g>
   <g id="text_19">
    <!-- KALMAN_TUNING.imu.gravityLowPass.maxAlpha -->
    <g transform="translate(278.433333 55.373281)scale(0.09 -0.09)">
     <defs>
      <path id="DejaVuSans-78" d="M 3513 3500 
L 2247 1797 
L 3578 0 
L 2900 0 
L 1881 1375 
L 863 0 
L 184 0 
L 1544 1831 
L 300 3500 
L 978 3500 
L 1906 2253 
L 2834 3500 
L 3513 3500 
z
" transform="scale(0.015625)"/>
     </defs>
     <use xlink:href="#DejaVuSans-4b"/>
     <use xlink:href="#DejaVuSans-41" x="63.826172"/>
     <use xlink:href="#DejaVuSans-4c" x="132.234375"/>
     <use xlink:href="#DejaVuSans-4d" x="187.947266"/>
     <use xlink:href="#DejaVuSans-41" x="274.226562"/>
     <use xlink:href="#DejaVuSans-4e" x="342.634766"/>
     <use xlink:href="#DejaVuSans-5f" x="417.439453"/>
     <use xlink:href="#DejaVuSans-54" x="467.439453"/>
     <use xlink:href="#DejaVuSans-55" x="528.523438"/>
     <use xlink:href="#DejaVuSans-4e" x="601.716797"/>
     <use xlink:href="#DejaVuSans-49" x="676.521484"/>
     <use xlink:href="#DejaVuSans-4e" x="706.013672"/>
     <use xlink:href="#DejaVuSans-47" x="780.818359"/>
     <use xlink:href="#DejaVuSans-2e" x="858.308594"/>
     <use xlink:href="#DejaVuSans-69" x="890.095703"/>
     <use xlink:href="#DejaVuSans-6d" x="917.878906"/>
     <use xlink:href="#DejaVuSans-75" x="1015.291016"/>
     <use xlink:href="#DejaVuSans-2e" x="1078.669922"/>
     <use xlink:href="#DejaVuSans-67" x="1110.457031"/>
     <use xlink:href="#DejaVuSans-72" x="1173.933594"/>
     <use xlink:href="#DejaVuSans-61" x="1215.046875"/>
     <use xlink:href="#DejaVuSans-76" x="1276.326172"/>
     <use xlink:href="#DejaVuSans-69" x="1335.505859"/>
     <use xlink:href="#DejaVuSans-74" x="1363.289062"/>
     <use xlink:href="#DejaVuSans-79" x="1402.498047"/>
     <use xlink:href="#DejaVuSans-4c" x="1461.677734"/>
     <use xlink:href="#DejaVuSans-6f" x="1515.640625"/>
     <use xlink:href="#DejaVuSans-77" x="1576.822266"/>
     <use xlink:href="#DejaVuSans-50" x="1658.609375"/>
     <use xlink:href="#DejaVuSans-61" x="1714.412109"/>
     <use xlink:href="#DejaVuSans-73" x="1775.691406"/>
     <use xlink:href="#DejaVuSans-73" x="1827.791016"/>
     <use xlink:href="#DejaVuSans-2e" x="1879.890625"/>
     <use xlink:href="#DejaVuSans-6d" x="1911.677734"/>
     <use xlink:href="#DejaVuSans-61" x="2009.089844"/>
     <use xlink:href="#DejaVuSans-78" x="2070.369141"/>
     <use xlink:href="#DejaVuSans-41" x="2129.548828"/>
     <use xlink:href="#DejaVuSans-6c" x="2197.957031"/>
     <use xlink:href="#DejaVuSans-70" x="2225.740234"/>
     <use xlink:href="#DejaVuSans-68" x="2289.216797"/>
     <use xlink:href="#DejaVuSans-61" x="2352.595703"/>
    </g>
   </g>
   <g id="text_20">
    <!-- IMU gravity low-pass vs boat length -->
    <g transform="translate(138.995313 19.44)scale(0.12 -0.12)">
     <use xlink:href="#DejaVuSans-49"/>
     <use xlink:href="#DejaVuSans-4d" x="29.492188"/>
     <use xlink:href="#DejaVuSans-55" x="115.771484"/>
     <use xlink:href="#DejaVuSans-20" x="188.964844"/>
     <use xlink:href="#DejaVuSans-67" x="220.751953"/>
     <use xlink:href="#DejaVuSans-72" x="284.228516"/>
     <use xlink:href="#DejaVuSans-61" x="325.341797"/>
     <use xlink:href="#DejaVuSans-76" x="386.621094"/>
     <use xlink:href="#DejaVuSans-69" x="445.800781"/>
     <use xlink:href="#DejaVuSans-74" x="473.583984"/>
     <use xlink:href="#DejaVuSans-79" x="512.792969"/>
     <use xlink:href="#DejaVuSans-20" x="571.972656"/>
     <use xlink:href="#DejaVuSans-6c" x="603.759766"/>
     <use xlink:href="#DejaVuSans-6f" x="631.542969"/>
     <use xlink:href="#DejaVuSans-77" x="692.724609"/>
     <use xlink:href="#DejaVuSans-2d" x="774.511719"/>
     <use xlink:href="#DejaVuSans-70" x="810.595703"/>
     <use xlink:href="#DejaVuSans-61" x="874.072266"/>
     <use xlink:href="#DejaVuSans-73" x="935.351562"/>
     <use xlink:href="#DejaVuSans-73" x="987.451172"/>
     <use xlink:href="#DejaVuSans-20" x="1039.550781"/>
     <use xlink:href="#DejaVuSans-76" x="1071.337891"/>
     <use xlink:href="#DejaVuSans-73" x="1130.517578"/>
     <use xlink:href="#DejaVuSans-20" x="1182.617188"/>
     <use xlink:href="#DejaVuSans-62" x="1214.404297"/>
     <use xlink:href="#DejaVuSans-6f" x="1277.880859"/>
     <use xlink:href="#DejaVuSans-61" x="1339.0625"/>
     <use xlink:href="#DejaVuSans-74" x="1400.341797"/>
     <use xlink:href="#DejaVuSans-20" x="1439.550781"/>
     <use xlink:href="#DejaVuSans-6c" x="1471.337891"/>
     <use xlink:href="#DejaVuSans-65" x="1499.121094"/>
     <use xlink:href="#DejaVuSans-6e" x="1560.644531"/>
     <use xlink:href="#DejaVuSans-67" x="1624.023438"/>
     <use xlink:href="#DejaVuSans-74" x="1687.5"/>
     <use xlink:href="#DejaVuSans-68" x="1726.708984"/>
    </g>
   </g>
  </g>
 </g>
 <defs>
  <clipPath id="pd4e6ddf0bf">
   <rect x="54.2" y="25.44" width="384.4" height="220.6"/>
  </clipPath>
 </defs>
</svg>
